<?xml version="1.0" encoding="utf-8"?>
<!-- Generator: Adobe Illustrator 22.0.0, SVG Export Plug-In . SVG Version: 6.00 Build 0)  -->
<svg version="1.1" id="图层_1" xmlns="http://www.w3.org/2000/svg" xmlns:xlink="http://www.w3.org/1999/xlink" x="0px" y="0px"
	 viewBox="0 0 120 40" style="enable-background:new 0 0 120 40;" xml:space="preserve">
<style type="text/css">
	.st0{fill:#EFCA23;}
	.st1{stroke:#000000;stroke-width:0.35;stroke-miterlimit:10;}
</style>
<path class="st0" d="M19.4,5l-3-3.4L13.8,5c-3.2,0.5-6.1,1.9-8.6,4.4c-6.2,6.2-6.1,16.2,0,22.4c6.3,6.3,16.3,6.3,22.4,0.1
	s6.1-16.2-0.1-22.4C25.8,7.6,22,5.7,19.4,5z M13.4,23.6c-2.9-1.8-3.9-5.6-2.1-8.5s5.6-3.9,8.5-2.1s3.9,5.7,2.1,8.5
	C20.1,24.6,16.4,25.4,13.4,23.6z"/>
<g>
	<path class="st1" d="M39.3,10.2l-2.9,8.5l-1.3-0.5L38,9.7L39.3,10.2z M44,5.7v16.7h-4.2V21h2.8V5.7H44z M48.6,9.7l2.9,8.5l-1.3,0.5
		l-2.9-8.5L48.6,9.7z"/>
	<path class="st1" d="M70,8h-3.7v1h-1.4V8h-6.5v1H57V8h-3.7V6.7H57v-1h1.4v1h6.5v-1h1.4v1H70V8z M53.6,12.6V9.6h15.9v2.9h-1.4V11
		h-6.5v1.2h5.6v3.6h-1.4v-2.2h-8.3v3.1h11.1v5.7h-4.3V21h3v-3H56.2v-5.9h4V11H55v1.6H53.6z M65.8,20.5h-12v-1.4h12V20.5z M61.9,16.2
		l-1.4-1.4l1-1l1.4,1.4L61.9,16.2z"/>
</g>
<g>
	<path d="M80,22c-4.4,0-7.2-3.3-7.2-8.1c0-4.8,2.9-8.1,7.3-8.1c1.9,0,3.2,0.5,4.4,1.3l-0.3,2.2C83,8.4,81.7,7.7,80,7.7
		c-3.2,0-5,2.4-5,6.2s1.9,6.1,5,6.1c1.7,0,3.1-0.7,4.4-1.6l0.3,2C83.5,21.4,81.8,22,80,22z"/>
	<path d="M98,21.4l-2.2,0.5L91,15.1h-1.6v6.6h-2.1V6.1h4.3c3.2,0,5.2,1.6,5.2,4.4c0,2.4-1.4,3.8-3.4,4.3L98,21.4z M91.5,8h-2v5.4
		h1.8c2.1,0,3.4-0.9,3.4-2.7C94.6,8.9,93.5,8,91.5,8z"/>
	<path d="M114.4,21.7l-1-12.4l-4.9,12.5h-1.6L102,9.3l-1,12.4h-2l1.2-15.6h2.6l4.9,12.8l4.9-12.8h2.6l1.2,15.6H114.4z"/>
</g>
<g>
	<path d="M40.8,29.5L40.5,30c-0.1,0-0.2-0.1-0.3-0.2c-0.2-0.1-0.6-0.3-1.1-0.5c-0.6,0.5-1.5,1-2.7,1.4c0-0.1-0.1-0.2-0.2-0.3
		c-0.1-0.1-0.1-0.1-0.1-0.2c1.2-0.3,2-0.7,2.5-1.1c-0.7-0.3-1.4-0.6-1.9-0.8c0-0.1,0.1-0.2,0.2-0.3c0.1-0.2,0.3-0.5,0.5-1h-1.2v-0.5
		h1.4c0.1-0.1,0.1-0.4,0.2-0.7c0.1-0.3,0.2-0.5,0.2-0.6l0.6,0.1c-0.1,0.1-0.1,0.3-0.2,0.6c-0.1,0.2-0.2,0.4-0.2,0.6h2.5V27
		c-0.3,0.8-0.7,1.5-1.2,2c0.1,0.1,0.2,0.1,0.4,0.2S40.4,29.3,40.8,29.5z M36.9,31.2h3.2c0.1-0.4,0.1-0.6,0.1-0.8h0.6
		c0,0.1,0,0.2,0,0.4c0,0.2-0.1,0.3-0.1,0.4H45c0,0.9,0,1.5,0,1.9c0,1.2-0.6,1.8-1.8,1.7c-0.7,0-1.3,0-1.7,0c0-0.1-0.1-0.2-0.1-0.4
		c0-0.1,0-0.2,0-0.2c0.1,0,0.4,0,0.7,0c0.4,0,0.8,0,1,0c0.9,0.1,1.4-0.4,1.3-1.2c0.1-0.4,0.1-0.9,0.1-1.3h-3.8
		c-0.2,1.6-1.6,2.7-3.9,3.3c-0.1-0.2-0.2-0.4-0.3-0.5c2.2-0.5,3.5-1.5,3.7-2.8h-3.2V31.2z M40.1,26.9H38c-0.2,0.4-0.4,0.8-0.6,1.1
		c0.2,0.1,0.5,0.2,0.9,0.4c0.3,0.1,0.6,0.2,0.7,0.3C39.5,28.3,39.8,27.7,40.1,26.9z M41.2,26.3v-0.5h4.2v0.6c-0.4,1-1,1.7-1.7,2.3
		c0.6,0.4,1.4,0.8,2.4,1c0,0,0,0.1-0.1,0.1c-0.1,0.2-0.2,0.3-0.2,0.5c-1.1-0.4-1.9-0.8-2.5-1.2c-0.6,0.4-1.2,0.7-1.9,1
		c-0.1-0.2-0.2-0.3-0.3-0.5c0.7-0.3,1.3-0.7,1.8-1c-0.5-0.5-1-1.2-1.5-2.2l0.5-0.2H41.2z M44.8,26.3h-2.9c0.4,0.9,0.9,1.5,1.4,2
		C43.8,27.9,44.3,27.2,44.8,26.3z"/>
	<path d="M50.3,25.2h0.6c0,1.1,0,1.8,0,2.4h4.7c0,0.2,0,0.6,0,1.1c0,1.8-0.1,3.1-0.1,3.9c0,1.5-0.7,2.2-2,2.2c-0.8,0-1.4,0-1.7,0
		c0-0.1-0.1-0.2-0.1-0.4c0-0.1,0-0.2,0-0.3c0.5,0,1.1,0,1.8,0c1,0.1,1.5-0.5,1.5-1.7c0-0.2,0-0.5,0-0.9c0.1-1.5,0.1-2.7,0.1-3.4
		h-4.1c0,0.1,0,0.1,0,0.2c0,3.1-1.3,5.4-3.9,6.7c0,0-0.1-0.1-0.2-0.2c-0.1-0.2-0.2-0.3-0.3-0.3c2.5-1.4,3.7-3.4,3.7-6.1
		c0-0.1,0-0.2,0-0.3h-3.4v-0.5h3.4C50.3,26.5,50.3,25.7,50.3,25.2z"/>
	<path d="M62.3,25.1h0.5c0,0.2,0,0.6,0,1c0,0.5,0,0.8,0,1h3.6v0.5H63c0.1,1.9,0.3,3.3,0.6,4.2c0.6-0.8,1.2-1.8,1.7-3.1l0.5,0.2
		c-0.7,1.5-1.4,2.7-2.1,3.5c0.4,1.2,0.9,1.8,1.4,1.8c0.3,0,0.5-0.2,0.7-0.6c0.1-0.5,0.2-1,0.2-1.3c0,0,0.1,0.1,0.2,0.1
		c0.1,0,0.2,0.1,0.4,0.1c-0.1,0.5-0.2,1-0.3,1.3c-0.2,0.7-0.6,1-1.2,1c-0.7,0-1.3-0.6-1.8-1.9c-0.4,0.5-1.1,1.1-2,1.7
		c-0.1-0.1-0.3-0.3-0.4-0.5c0.9-0.6,1.6-1.2,2.2-1.9c-0.4-1.1-0.6-2.6-0.7-4.7h-4.2v1.7h2.9c0,0.8,0,1.8-0.1,2.9
		c0,1-0.5,1.5-1.4,1.5c-0.2,0-0.5,0-0.9,0c0-0.2-0.1-0.4-0.1-0.6c0.3,0,0.6,0,1,0c0.6,0,0.9-0.3,0.9-0.9c0-0.1,0-0.3,0-0.5
		c0-0.8,0-1.4,0-1.9h-2.4c0,1.3-0.1,2.3-0.3,2.9c-0.1,0.6-0.5,1.3-1,2.1c0,0-0.1-0.1-0.2-0.2c-0.1-0.1-0.2-0.2-0.2-0.2
		c0.5-0.7,0.8-1.4,0.9-2.1c0.1-0.6,0.2-1.6,0.2-3.2v-2.2h4.7c0-0.2,0-0.5,0-1C62.3,25.8,62.3,25.4,62.3,25.1z M63.7,25.8l0.3-0.4
		c0.7,0.4,1.2,0.8,1.6,1l-0.4,0.4c-0.1-0.1-0.2-0.1-0.3-0.2C64.5,26.3,64,26,63.7,25.8z"/>
	<path d="M71.4,25.1h0.6c0,1-0.1,1.9-0.2,2.7h4.4c0,1.3-0.1,2.9-0.2,4.9c0,1.4-0.7,2-2,2c-0.9,0-1.5,0-1.8,0c0-0.2-0.1-0.5-0.2-0.7
		c0.1,0,0.4,0,0.7,0c0.6,0,0.9,0,1.2,0c1,0.1,1.5-0.4,1.5-1.4c0.1-0.7,0.1-2.1,0.2-4.1c0,0.1,0,0,0-0.2h-3.9
		c-0.2,2.9-1.6,5.1-4.2,6.7c0-0.1-0.1-0.1-0.2-0.2c-0.1-0.1-0.2-0.2-0.2-0.3c2.5-1.5,3.9-3.5,4.1-6.1h-3.9v-0.6h3.9
		C71.3,27,71.4,26.1,71.4,25.1z M68,25.7l0.5-0.4c0,0,0.1,0.1,0.1,0.1c0.4,0.4,0.9,0.8,1.4,1.3l-0.5,0.5
		C69.1,26.7,68.6,26.2,68,25.7z M72.2,30.4l0.5-0.3c0.2,0.2,0.6,0.6,1.2,1.1c0.2,0.2,0.4,0.4,0.5,0.5l-0.5,0.4
		C73.3,31.5,72.7,30.9,72.2,30.4z"/>
	<path d="M77,31.4c1-0.9,2-2,2.9-3.6l0.5,0.3c-0.4,0.7-0.8,1.2-1.1,1.7v5.3h-0.6v-4.6c-0.6,0.6-1.1,1.1-1.4,1.4c0,0,0-0.1,0-0.1
		C77.2,31.7,77.2,31.5,77,31.4z M77.6,28.5c-0.1-0.2-0.2-0.4-0.3-0.5c1-0.7,1.8-1.7,2.6-2.8l0.5,0.3C79.7,26.5,78.7,27.5,77.6,28.5z
		 M80.8,29.1h6.3v0.5h-2.1v3.9c0.1,0.9-0.4,1.3-1.4,1.3c-0.4,0-0.8,0-1.4,0c0-0.1-0.1-0.2-0.1-0.4c0-0.1,0-0.2,0-0.2
		c0.4,0,0.8,0,1.4,0c0.7,0,1-0.2,0.9-0.7v-3.9h-3.7V29.1z M81.4,25.9h5.1v0.5h-5.1V25.9z"/>
	<path d="M93.4,25.3H94v8.5h3.4v0.5h-10v-0.5h3.4v-8.5h0.5v8.5h2.1V25.3z M89.4,31.6c-0.5-1.4-1-2.7-1.5-4l0.5-0.2
		c0.2,0.6,0.6,1.7,1.2,3.1c0.2,0.5,0.3,0.8,0.4,1L89.4,31.6z M95.2,31.7l-0.5-0.2c0.4-0.8,1-2.2,1.7-4l0.5,0.2
		C96.4,28.9,95.8,30.3,95.2,31.7z"/>
	<path d="M97.7,29h1.6v-3.7h0.5V29h1.4v0.5h-1.4v1.3l0.4-0.3c0,0,0.1,0.1,0.1,0.1c0.6,0.7,1,1.2,1.2,1.5l-0.5,0.3
		c-0.2-0.2-0.4-0.6-0.7-1c-0.2-0.3-0.4-0.5-0.5-0.6V35h-0.5v-4.4c-0.4,1.1-0.8,2.1-1.4,2.9c0-0.1-0.1-0.2-0.2-0.3
		c-0.1-0.1-0.1-0.2-0.1-0.2c0.7-1,1.3-2.1,1.7-3.5h-1.5V29z M97.7,26.3l0.5-0.2c0.3,0.7,0.6,1.3,0.8,2l-0.5,0.2
		c0-0.1-0.1-0.1-0.1-0.2C98.1,27.4,97.9,26.8,97.7,26.3z M100.6,28.3l-0.5-0.2c0.3-0.7,0.6-1.3,0.8-2l0.5,0.2
		C101.1,27,100.9,27.6,100.6,28.3z M102,27.5h2.2v-0.9h-2.5v-0.5h2.5v-1h0.5v1h2.8v0.5h-2.8v0.9h2.5v0.5h-2.5v0.9h2.9v0.5h-6.1v-0.5
		h2.7v-0.9H102V27.5z M102.5,35.1h-0.5v-5h5v3.8c0,0.7-0.3,1.1-1.1,1.1c-0.1,0-0.3,0-0.6,0c-0.3,0-0.5,0-0.7,0c0-0.2,0-0.4-0.1-0.6
		c0.3,0,0.7,0,1.3,0c0.5,0,0.7-0.2,0.7-0.6v-0.6h-4V35.1z M102.5,30.5v0.9h4v-0.9H102.5z M102.5,31.9v0.9h4v-0.9H102.5z"/>
	<path d="M117.6,35c-2.5-0.5-4-1.4-4.6-2.9c-0.5,1.3-2.1,2.3-4.7,2.9c-0.1-0.2-0.2-0.4-0.3-0.6c2.4-0.5,3.9-1.4,4.5-2.6h-4.6v-0.5
		h1.3v-2.8h3.4v-1h0.6v1h3.3v2.8h1.3v0.5h-4.5c0.7,1.4,2.2,2.2,4.5,2.5c0,0.1-0.1,0.1-0.1,0.2C117.7,34.8,117.6,34.9,117.6,35z
		 M114.6,25.1h0.5v1.2h2.7v0.5h-2.7v1h-0.5v-1h-3.3v1h-0.6v-1H108v-0.5h2.7v-1.2h0.6v1.2h3.3V25.1z M112.6,31.4
		c0.1-0.5,0.1-1.3,0.1-2.3h-2.8v2.3H112.6z M113.2,29.1c0,0.3,0,0.7,0,1.1c0,0.6,0,0.9,0,1.2h2.8v-2.3H113.2z"/>
</g>
</svg>
