<?xml version="1.0" encoding="UTF-8"?>
<svg width="82px" height="31px" viewBox="0 0 82 31" version="1.1" xmlns="http://www.w3.org/2000/svg" xmlns:xlink="http://www.w3.org/1999/xlink">
    <!-- Generator: Sketch 50 (54983) - http://www.bohemiancoding.com/sketch -->
    <title>Group 18</title>
    <desc>Created with Sketch.</desc>
    <defs></defs>
    <g id="Page-1" stroke="none" stroke-width="1" fill="none" fill-rule="evenodd">
        <g id="Group-18" transform="translate(-1.000000, -1.000000)" fill="#000000">
            <g id="Group" transform="translate(37.000000, 1.000000)" fill-rule="nonzero">
                <path d="M8,17 C3.6,17 0.8,13.7 0.8,8.9 C0.8,4.1 3.7,0.8 8.1,0.8 C10,0.8 11.3,1.3 12.5,2.1 L12.2,4.3 C11,3.4 9.7,2.7 8,2.7 C4.8,2.7 3,5.1 3,8.9 C3,12.7 4.9,15 8,15 C9.7,15 11.1,14.3 12.4,13.4 L12.7,15.4 C11.5,16.4 9.8,17 8,17 Z" id="Shape"></path>
                <path d="M26,16.4 L23.8,16.9 L19,10.1 L17.4,10.1 L17.4,16.7 L15.3,16.7 L15.3,1.1 L19.6,1.1 C22.8,1.1 24.8,2.7 24.8,5.5 C24.8,7.9 23.4,9.3 21.4,9.8 L26,16.4 Z M19.5,3 L17.5,3 L17.5,8.4 L19.3,8.4 C21.4,8.4 22.7,7.5 22.7,5.7 C22.6,3.9 21.5,3 19.5,3 Z" id="Shape"></path>
                <polygon id="Shape" points="42.4 16.7 41.4 4.3 36.5 16.8 34.9 16.8 30 4.3 29 16.7 27 16.7 28.2 1.1 30.8 1.1 35.7 13.9 40.6 1.1 43.2 1.1 44.4 16.7 42.4 16.7"></polygon>
            </g>
            <g id="Group" transform="translate(1.000000, 21.000000)" fill-rule="nonzero">
                <path d="M4.8,4.5 L4.5,5 C4.4,5 4.3,4.9 4.2,4.8 C4,4.7 3.6,4.5 3.1,4.3 C2.5,4.8 1.6,5.3 0.4,5.7 C0.4,5.6 0.3,5.5 0.2,5.4 C0.1,5.3 0.1,5.3 0.1,5.2 C1.3,4.9 2.1,4.5 2.6,4.1 C1.9,3.8 1.2,3.5 0.7,3.3 C0.7,3.2 0.8,3.1 0.9,3 C1,2.8 1.2,2.5 1.4,2 L0.2,2 L0.2,1.5 L1.6,1.5 C1.7,1.4 1.7,1.1 1.8,0.8 C1.9,0.5 2,0.3 2,0.2 L2.6,0.3 C2.5,0.4 2.5,0.6 2.4,0.9 C2.3,1.1 2.2,1.3 2.2,1.5 L4.7,1.5 L4.7,2 C4.4,2.8 4,3.5 3.5,4 C3.6,4.1 3.7,4.1 3.9,4.2 C4.1,4.3 4.4,4.3 4.8,4.5 Z M0.9,6.2 L4.1,6.2 C4.2,5.8 4.2,5.6 4.2,5.4 L4.8,5.4 C4.8,5.5 4.8,5.6 4.8,5.8 C4.8,6 4.7,6.1 4.7,6.2 L9,6.2 C9,7.1 9,7.7 9,8.1 C9,9.3 8.4,9.9 7.2,9.8 C6.5,9.8 5.9,9.8 5.5,9.8 C5.5,9.7 5.4,9.6 5.4,9.4 C5.4,9.3 5.4,9.2 5.4,9.2 C5.5,9.2 5.8,9.2 6.1,9.2 C6.5,9.2 6.9,9.2 7.1,9.2 C8,9.3 8.5,8.8 8.4,8 C8.5,7.6 8.5,7.1 8.5,6.7 L4.7,6.7 C4.5,8.3 3.1,9.4 0.8,10 C0.7,9.8 0.6,9.6 0.5,9.5 C2.7,9 4,8 4.2,6.7 L1,6.7 L1,6.2 L0.9,6.2 Z M4.1,1.9 L2,1.9 C1.8,2.3 1.6,2.7 1.4,3 C1.6,3.1 1.9,3.2 2.3,3.4 C2.6,3.5 2.9,3.6 3,3.7 C3.5,3.3 3.8,2.7 4.1,1.9 Z M5.2,1.3 L5.2,0.8 L9.4,0.8 L9.4,1.4 C9,2.4 8.4,3.1 7.7,3.7 C8.3,4.1 9.1,4.5 10.1,4.7 C10.1,4.7 10.1,4.8 10,4.8 C9.9,5 9.8,5.1 9.8,5.3 C8.7,4.9 7.9,4.5 7.3,4.1 C6.7,4.5 6.1,4.8 5.4,5.1 C5.3,4.9 5.2,4.8 5.1,4.6 C5.8,4.3 6.4,3.9 6.9,3.6 C6.4,3.1 5.9,2.4 5.4,1.4 L5.9,1.2 L5.2,1.2 L5.2,1.3 Z M8.8,1.3 L5.9,1.3 C6.3,2.2 6.8,2.8 7.3,3.3 C7.8,2.9 8.3,2.2 8.8,1.3 Z" id="Shape"></path>
                <path d="M14.3,0.2 L14.9,0.2 C14.9,1.3 14.9,2 14.9,2.6 L19.6,2.6 C19.6,2.8 19.6,3.2 19.6,3.7 C19.6,5.5 19.5,6.8 19.5,7.6 C19.5,9.1 18.8,9.8 17.5,9.8 C16.7,9.8 16.1,9.8 15.8,9.8 C15.8,9.7 15.7,9.6 15.7,9.4 C15.7,9.3 15.7,9.2 15.7,9.1 C16.2,9.1 16.8,9.1 17.5,9.1 C18.5,9.2 19,8.6 19,7.4 C19,7.2 19,6.9 19,6.5 C19.1,5 19.1,3.8 19.1,3.1 L15,3.1 C15,3.2 15,3.2 15,3.3 C15,6.4 13.7,8.7 11.1,10 C11.1,10 11,9.9 10.9,9.8 C10.8,9.6 10.7,9.5 10.6,9.5 C13.1,8.1 14.3,6.1 14.3,3.4 C14.3,3.3 14.3,3.2 14.3,3.1 L10.9,3.1 L10.9,2.6 L14.3,2.6 C14.3,1.5 14.3,0.7 14.3,0.2 Z" id="Shape"></path>
                <path d="M26.3,0.1 L26.8,0.1 C26.8,0.3 26.8,0.7 26.8,1.1 C26.8,1.6 26.8,1.9 26.8,2.1 L30.4,2.1 L30.4,2.6 L27,2.6 C27.1,4.5 27.3,5.9 27.6,6.8 C28.2,6 28.8,5 29.3,3.7 L29.8,3.9 C29.1,5.4 28.4,6.6 27.7,7.4 C28.1,8.6 28.6,9.2 29.1,9.2 C29.4,9.2 29.6,9 29.8,8.6 C29.9,8.1 30,7.6 30,7.3 C30,7.3 30.1,7.4 30.2,7.4 C30.3,7.4 30.4,7.5 30.6,7.5 C30.5,8 30.4,8.5 30.3,8.8 C30.1,9.5 29.7,9.8 29.1,9.8 C28.4,9.8 27.8,9.2 27.3,7.9 C26.9,8.4 26.2,9 25.3,9.6 C25.2,9.5 25,9.3 24.9,9.1 C25.8,8.5 26.5,7.9 27.1,7.2 C26.7,6.1 26.5,4.6 26.4,2.5 L22.2,2.5 L22.2,4.2 L25.1,4.2 C25.1,5 25.1,6 25,7.1 C25,8.1 24.5,8.6 23.6,8.6 C23.4,8.6 23.1,8.6 22.7,8.6 C22.7,8.4 22.6,8.2 22.6,8 C22.9,8 23.2,8 23.6,8 C24.2,8 24.5,7.7 24.5,7.1 C24.5,7 24.5,6.8 24.5,6.6 C24.5,5.8 24.5,5.2 24.5,4.7 L22.1,4.7 C22.1,6 22,7 21.8,7.6 C21.7,8.2 21.3,8.9 20.8,9.7 C20.8,9.7 20.7,9.6 20.6,9.5 C20.5,9.4 20.4,9.3 20.4,9.3 C20.9,8.6 21.2,7.9 21.3,7.2 C21.4,6.6 21.5,5.6 21.5,4 L21.5,1.8 L26.2,1.8 C26.2,1.6 26.2,1.3 26.2,0.8 C26.3,0.8 26.3,0.4 26.3,0.1 Z M27.7,0.8 L28,0.4 C28.7,0.8 29.2,1.2 29.6,1.4 L29.2,1.8 C29.1,1.7 29,1.7 28.9,1.6 C28.5,1.3 28,1 27.7,0.8 Z" id="Shape"></path>
                <path d="M35.4,0.1 L36,0.1 C36,1.1 35.9,2 35.8,2.8 L40.2,2.8 C40.2,4.1 40.1,5.7 40,7.7 C40,9.1 39.3,9.7 38,9.7 C37.1,9.7 36.5,9.7 36.2,9.7 C36.2,9.5 36.1,9.2 36,9 C36.1,9 36.4,9 36.7,9 C37.3,9 37.6,9 37.9,9 C38.9,9.1 39.4,8.6 39.4,7.6 C39.5,6.9 39.5,5.5 39.6,3.5 C39.6,3.6 39.6,3.5 39.6,3.3 L35.7,3.3 C35.5,6.2 34.1,8.4 31.5,10 C31.5,9.9 31.4,9.9 31.3,9.8 C31.2,9.7 31.1,9.6 31.1,9.5 C33.6,8 35,6 35.2,3.4 L31.3,3.4 L31.3,2.8 L35.2,2.8 C35.3,2 35.4,1.1 35.4,0.1 Z M32,0.7 L32.5,0.3 C32.5,0.3 32.6,0.4 32.6,0.4 C33,0.8 33.5,1.2 34,1.7 L33.5,2.2 C33.1,1.7 32.6,1.2 32,0.7 Z M36.2,5.4 L36.7,5.1 C36.9,5.3 37.3,5.7 37.9,6.2 C38.1,6.4 38.3,6.6 38.4,6.7 L37.9,7.1 C37.3,6.5 36.7,5.9 36.2,5.4 Z" id="Shape"></path>
                <path d="M41,6.4 C42,5.5 43,4.4 43.9,2.8 L44.4,3.1 C44,3.8 43.6,4.3 43.3,4.8 L43.3,10.1 L42.7,10.1 L42.7,5.5 C42.1,6.1 41.6,6.6 41.3,6.9 C41.3,6.9 41.3,6.8 41.3,6.8 C41.2,6.7 41.2,6.5 41,6.4 Z M41.6,3.5 C41.5,3.3 41.4,3.1 41.3,3 C42.3,2.3 43.1,1.3 43.9,0.2 L44.4,0.5 C43.7,1.5 42.7,2.5 41.6,3.5 Z M44.8,4.1 L51.1,4.1 L51.1,4.6 L49,4.6 L49,8.5 C49.1,9.4 48.6,9.8 47.6,9.8 C47.2,9.8 46.8,9.8 46.2,9.8 C46.2,9.7 46.1,9.6 46.1,9.4 C46.1,9.3 46.1,9.2 46.1,9.2 C46.5,9.2 46.9,9.2 47.5,9.2 C48.2,9.2 48.5,9 48.4,8.5 L48.4,4.6 L44.7,4.6 L44.7,4.1 L44.8,4.1 Z M45.4,0.9 L50.5,0.9 L50.5,1.4 L45.4,1.4 L45.4,0.9 Z" id="Shape"></path>
                <path d="M57.4,0.3 L58,0.3 L58,8.8 L61.4,8.8 L61.4,9.3 L51.4,9.3 L51.4,8.8 L54.8,8.8 L54.8,0.3 L55.3,0.3 L55.3,8.8 L57.4,8.8 L57.4,0.3 Z M53.4,6.6 C52.9,5.2 52.4,3.9 51.9,2.6 L52.4,2.4 C52.6,3 53,4.1 53.6,5.5 C53.8,6 53.9,6.3 54,6.5 L53.4,6.6 Z M59.2,6.7 L58.7,6.5 C59.1,5.7 59.7,4.3 60.4,2.5 L60.9,2.7 C60.4,3.9 59.8,5.3 59.2,6.7 Z" id="Shape"></path>
                <path d="M61.7,4 L63.3,4 L63.3,0.3 L63.8,0.3 L63.8,4 L65.2,4 L65.2,4.5 L63.8,4.5 L63.8,5.8 L64.2,5.5 C64.2,5.5 64.3,5.6 64.3,5.6 C64.9,6.3 65.3,6.8 65.5,7.1 L65,7.4 C64.8,7.2 64.6,6.8 64.3,6.4 C64.1,6.1 63.9,5.9 63.8,5.8 L63.8,10 L63.3,10 L63.3,5.6 C62.9,6.7 62.5,7.7 61.9,8.5 C61.9,8.4 61.8,8.3 61.7,8.2 C61.6,8.1 61.6,8 61.6,8 C62.3,7 62.9,5.9 63.3,4.5 L61.8,4.5 L61.8,4 L61.7,4 Z M61.7,1.3 L62.2,1.1 C62.5,1.8 62.8,2.4 63,3.1 L62.5,3.3 C62.5,3.2 62.4,3.2 62.4,3.1 C62.1,2.4 61.9,1.8 61.7,1.3 Z M64.6,3.3 L64.1,3.1 C64.4,2.4 64.7,1.8 64.9,1.1 L65.4,1.3 C65.1,2 64.9,2.6 64.6,3.3 Z M66,2.5 L68.2,2.5 L68.2,1.6 L65.7,1.6 L65.7,1.1 L68.2,1.1 L68.2,0.1 L68.7,0.1 L68.7,1.1 L71.5,1.1 L71.5,1.6 L68.7,1.6 L68.7,2.5 L71.2,2.5 L71.2,3 L68.7,3 L68.7,3.9 L71.6,3.9 L71.6,4.4 L65.5,4.4 L65.5,3.9 L68.2,3.9 L68.2,3 L66,3 L66,2.5 Z M66.5,10.1 L66,10.1 L66,5.1 L71,5.1 L71,8.9 C71,9.6 70.7,10 69.9,10 C69.8,10 69.6,10 69.3,10 C69,10 68.8,10 68.6,10 C68.6,9.8 68.6,9.6 68.5,9.4 C68.8,9.4 69.2,9.4 69.8,9.4 C70.3,9.4 70.5,9.2 70.5,8.8 L70.5,8.2 L66.5,8.2 L66.5,10.1 Z M66.5,5.5 L66.5,6.4 L70.5,6.4 L70.5,5.5 L66.5,5.5 Z M66.5,6.9 L66.5,7.8 L70.5,7.8 L70.5,6.9 L66.5,6.9 Z" id="Shape"></path>
                <path d="M81.6,10 C79.1,9.5 77.6,8.6 77,7.1 C76.5,8.4 74.9,9.4 72.3,10 C72.2,9.8 72.1,9.6 72,9.4 C74.4,8.9 75.9,8 76.5,6.8 L71.9,6.8 L71.9,6.3 L73.2,6.3 L73.2,3.5 L76.6,3.5 L76.6,2.5 L77.2,2.5 L77.2,3.5 L80.5,3.5 L80.5,6.3 L81.8,6.3 L81.8,6.8 L77.3,6.8 C78,8.2 79.5,9 81.8,9.3 C81.8,9.4 81.7,9.4 81.7,9.5 C81.7,9.8 81.6,9.9 81.6,10 Z M78.6,0.1 L79.1,0.1 L79.1,1.3 L81.8,1.3 L81.8,1.8 L79.1,1.8 L79.1,2.8 L78.6,2.8 L78.6,1.8 L75.3,1.8 L75.3,2.8 L74.7,2.8 L74.7,1.8 L72,1.8 L72,1.3 L74.7,1.3 L74.7,0.1 L75.3,0.1 L75.3,1.3 L78.6,1.3 L78.6,0.1 Z M76.6,6.4 C76.7,5.9 76.7,5.1 76.7,4.1 L73.9,4.1 L73.9,6.4 L76.6,6.4 Z M77.2,4.1 C77.2,4.4 77.2,4.8 77.2,5.2 C77.2,5.8 77.2,6.1 77.2,6.4 L80,6.4 L80,4.1 L77.2,4.1 Z" id="Shape"></path>
            </g>
            <path d="M2.0165,17.7250488 L2.0165,10.0660488 L16.4835,10.0660488 L16.4835,17.7250488 L2.0165,17.7250488 Z M13.209,7.49454883 L15.1515,7.49454883 L15.1515,3.16554883 L11.914,3.16554883 L11.914,6.69904883 L10.286,9.19654883 L9.1575,8.45654883 L10.582,6.27354883 L10.582,3.16554883 L9.1945,3.16554883 L9.1945,1.83354883 L16.4835,1.83354883 L16.4835,8.82654883 L13.209,8.82654883 L13.209,7.49454883 Z M8.4545,5.95904883 L7.4185,8.82654883 L2.0165,8.82654883 L2.0165,1.83354883 L8.3065,1.83354883 L8.3065,3.16554883 L3.3485,3.16554883 L3.3485,7.49454883 L6.475,7.49454883 L7.178,5.53354883 L8.4545,5.95904883 Z M3.3485,13.2665488 L8.584,13.2665488 L8.584,11.3980488 L3.3485,11.3980488 L3.3485,13.2665488 Z M15.1515,11.3980488 L9.916,11.3980488 L9.916,13.2665488 L15.1515,13.2665488 L15.1515,11.3980488 Z M15.1515,16.3930488 L15.1515,14.5985488 L9.916,14.5985488 L9.916,16.3930488 L15.1515,16.3930488 Z M3.3485,16.3930488 L8.584,16.3930488 L8.584,14.5985488 L3.3485,14.5985488 L3.3485,16.3930488 Z M22.555,8.04954883 L32.064,8.04954883 L32.064,9.82554883 L29.3815,12.0455488 L35.838,12.0455488 L35.838,13.3775488 L28.549,13.3775488 L28.549,17.7620488 L24.3125,17.7620488 L24.3125,16.4300488 L27.217,16.4300488 L27.217,13.3775488 L19.2435,13.3775488 L19.2435,12.0455488 L27.2725,12.0455488 L30.473,9.38154883 L22.555,9.38154883 L22.555,8.04954883 Z M19.5765,8.38254883 L19.5765,4.90454883 L35.505,4.90454883 L35.505,8.29004883 L34.173,8.29004883 L34.173,6.23654883 L20.9085,6.23654883 L20.9085,8.38254883 L19.5765,8.38254883 Z M31.7125,3.68354883 L33.4515,1.87054883 L34.4135,2.75854883 L32.6745,4.57154883 L31.7125,3.68354883 Z M27.92,4.57154883 L26.181,2.75854883 L27.143,1.87054883 L28.882,3.68354883 L27.92,4.57154883 Z M22.407,4.57154883 L20.668,2.75854883 L21.63,1.87054883 L23.369,3.68354883 L22.407,4.57154883 Z" id="留学" stroke="#000000" stroke-width="0.2"></path>
        </g>
    </g>
</svg>